<svg width="50" height="50" viewBox="0 0 50 50" fill="none" xmlns="http://www.w3.org/2000/svg">
<g clip-path="url(#clip0_517_1740)">
<path d="M39.5833 4.16667H37.5V2.08333C37.5 1.5308 37.2805 1.0009 36.8898 0.610194C36.4991 0.219493 35.9692 0 35.4167 0C34.8641 0 34.3342 0.219493 33.9435 0.610194C33.5528 1.0009 33.3333 1.5308 33.3333 2.08333V4.16667H16.6667V2.08333C16.6667 1.5308 16.4472 1.0009 16.0565 0.610194C15.6658 0.219493 15.1359 0 14.5833 0C14.0308 0 13.5009 0.219493 13.1102 0.610194C12.7195 1.0009 12.5 1.5308 12.5 2.08333V4.16667H10.4167C7.65501 4.16997 5.00741 5.2685 3.05462 7.22129C1.10184 9.17408 0.00330804 11.8217 0 14.5833L0 39.5833C0.00330804 42.345 1.10184 44.9926 3.05462 46.9454C5.00741 48.8982 7.65501 49.9967 10.4167 50H39.5833C42.345 49.9967 44.9926 48.8982 46.9454 46.9454C48.8982 44.9926 49.9967 42.345 50 39.5833V14.5833C49.9967 11.8217 48.8982 9.17408 46.9454 7.22129C44.9926 5.2685 42.345 4.16997 39.5833 4.16667ZM4.16667 14.5833C4.16667 12.9257 4.82515 11.336 5.99725 10.1639C7.16935 8.99181 8.75906 8.33333 10.4167 8.33333H39.5833C41.2409 8.33333 42.8306 8.99181 44.0028 10.1639C45.1749 11.336 45.8333 12.9257 45.8333 14.5833V16.6667H4.16667V14.5833ZM39.5833 45.8333H10.4167C8.75906 45.8333 7.16935 45.1749 5.99725 44.0028C4.82515 42.8306 4.16667 41.2409 4.16667 39.5833V20.8333H45.8333V39.5833C45.8333 41.2409 45.1749 42.8306 44.0028 44.0028C42.8306 45.1749 41.2409 45.8333 39.5833 45.8333Z" fill="currentColor"/>
<path d="M25 34.375C26.7259 34.375 28.125 32.9759 28.125 31.25C28.125 29.5241 26.7259 28.125 25 28.125C23.2741 28.125 21.875 29.5241 21.875 31.25C21.875 32.9759 23.2741 34.375 25 34.375Z" fill="currentColor"/>
<path d="M14.583 34.375C16.3089 34.375 17.708 32.9759 17.708 31.25C17.708 29.5241 16.3089 28.125 14.583 28.125C12.8571 28.125 11.458 29.5241 11.458 31.25C11.458 32.9759 12.8571 34.375 14.583 34.375Z" fill="currentColor"/>
<path d="M35.417 34.375C37.1429 34.375 38.542 32.9759 38.542 31.25C38.542 29.5241 37.1429 28.125 35.417 28.125C33.6911 28.125 32.292 29.5241 32.292 31.25C32.292 32.9759 33.6911 34.375 35.417 34.375Z" fill="currentColor"/>
</g>
<defs>
<clipPath id="clip0_517_1740">
<rect width="50" height="50" fill="white"/>
</clipPath>
</defs>
</svg>
