<svg width="50" height="52" viewBox="0 0 50 52" fill="none" xmlns="http://www.w3.org/2000/svg">
<path d="M13.3544 19.3008H36.6461C37.0581 19.3026 37.4603 19.4301 37.802 19.6672C38.1436 19.9043 38.4093 20.2404 38.5654 20.6329C38.7215 21.0254 38.761 21.4568 38.6789 21.8724C38.5969 22.2881 38.3969 22.6694 38.1044 22.9681L26.4794 34.9349C26.2857 35.136 26.0553 35.2955 25.8014 35.4044C25.5475 35.5133 25.2752 35.5693 25.0002 35.5693C24.7252 35.5693 24.4529 35.5133 24.199 35.4044C23.9451 35.2955 23.7147 35.136 23.5211 34.9349L11.8961 22.9681C11.6035 22.6694 11.4036 22.2881 11.3215 21.8724C11.2395 21.4568 11.279 21.0254 11.4351 20.6329C11.5912 20.2404 11.8568 19.9043 12.1985 19.6672C12.5401 19.4301 12.9424 19.3026 13.3544 19.3008Z" fill="#B7BABF"/>
</svg>
