<svg width="85" height="86" viewBox="0 0 85 86" fill="none" xmlns="http://www.w3.org/2000/svg">
<g clip-path="url(#clip0_1072_2070)">
<path d="M84.9994 40.3028C84.4872 31.9179 81.561 23.8679 76.5816 17.1452C71.6021 10.4226 64.7871 5.32119 56.9767 2.46994C49.1664 -0.381308 40.702 -0.857762 32.6272 1.09932C24.5525 3.0564 17.2202 7.36146 11.5345 13.4838C5.8487 19.6061 2.05798 27.278 0.629631 35.5537C-0.798719 43.8293 0.197741 52.347 3.49616 60.0567C6.79459 67.7663 12.2508 74.3308 19.1921 78.941C26.1334 83.5511 34.2564 86.0053 42.5596 86.001H67.2911C71.9862 85.9963 76.4877 84.1071 79.8076 80.7481C83.1275 77.3891 84.9947 72.8347 84.9994 68.0844V40.3028ZM77.9161 68.0844C77.9161 70.9355 76.7967 73.6698 74.8041 75.6858C72.8115 77.7018 70.109 78.8344 67.2911 78.8344H42.5596C37.5621 78.8321 32.6212 77.7641 28.059 75.7001C23.4968 73.636 19.4158 70.6223 16.0821 66.8553C12.7323 63.0902 10.2169 58.644 8.70446 53.8148C7.19204 48.9856 6.7176 43.885 7.31296 38.8551C8.25305 30.9214 11.7761 23.5299 17.3268 17.8458C22.8775 12.1617 30.1401 8.50827 37.9696 7.46154C39.4969 7.26787 41.0346 7.16974 42.5738 7.16771C50.8276 7.14493 58.8258 10.0627 65.1661 15.4094C68.869 18.5231 71.9084 22.3652 74.1 26.7027C76.2917 31.0403 77.5899 35.7829 77.9161 40.6432V68.0844Z" fill="currentColor"/>
<path d="M28.3328 32.2497H42.4994C43.4387 32.2497 44.3396 31.8721 45.0038 31.2001C45.668 30.5281 46.0411 29.6167 46.0411 28.6663C46.0411 27.716 45.668 26.8045 45.0038 26.1325C44.3396 25.4605 43.4387 25.083 42.4994 25.083H28.3328C27.3935 25.083 26.4926 25.4605 25.8284 26.1325C25.1642 26.8045 24.7911 27.716 24.7911 28.6663C24.7911 29.6167 25.1642 30.5281 25.8284 31.2001C26.4926 31.8721 27.3935 32.2497 28.3328 32.2497Z" fill="currentColor"/>
<path d="M56.6661 39.417H28.3328C27.3935 39.417 26.4926 39.7945 25.8284 40.4665C25.1642 41.1385 24.7911 42.05 24.7911 43.0003C24.7911 43.9507 25.1642 44.8622 25.8284 45.5342C26.4926 46.2062 27.3935 46.5837 28.3328 46.5837H56.6661C57.6054 46.5837 58.5063 46.2062 59.1704 45.5342C59.8346 44.8622 60.2078 43.9507 60.2078 43.0003C60.2078 42.05 59.8346 41.1385 59.1704 40.4665C58.5063 39.7945 57.6054 39.417 56.6661 39.417Z" fill="currentColor"/>
<path d="M56.6661 53.75H28.3328C27.3935 53.75 26.4926 54.1275 25.8284 54.7995C25.1642 55.4715 24.7911 56.383 24.7911 57.3334C24.7911 58.2837 25.1642 59.1952 25.8284 59.8672C26.4926 60.5392 27.3935 60.9167 28.3328 60.9167H56.6661C57.6054 60.9167 58.5063 60.5392 59.1704 59.8672C59.8346 59.1952 60.2078 58.2837 60.2078 57.3334C60.2078 56.383 59.8346 55.4715 59.1704 54.7995C58.5063 54.1275 57.6054 53.75 56.6661 53.75Z" fill="currentColor"/>
</g>
<defs>
<clipPath id="clip0_1072_2070">
<rect width="85" height="86" fill="white"/>
</clipPath>
</defs>
</svg>
