<svg width="39" height="39" viewBox="0 0 39 39" fill="none" xmlns="http://www.w3.org/2000/svg">
<g clip-path="url(#clip0_676_2624)">
<path d="M38.5239 0.475778C38.2192 0.171138 37.8059 0 37.375 0C36.9441 0 36.5309 0.171138 36.2261 0.475778L19.5 17.2019L2.77389 0.475778C2.46916 0.171138 2.05591 0 1.62502 0C1.19413 0 0.780877 0.171138 0.476144 0.475778C0.171504 0.780511 0.000366211 1.19376 0.000366211 1.62465C0.000366211 2.05554 0.171504 2.4688 0.476144 2.77353L17.2023 19.4997L0.476144 36.2258C0.171504 36.5305 0.000366211 36.9438 0.000366211 37.3747C0.000366211 37.8055 0.171504 38.2188 0.476144 38.5235C0.780877 38.8282 1.19413 38.9993 1.62502 38.9993C2.05591 38.9993 2.46916 38.8282 2.77389 38.5235L19.5 21.7974L36.2261 38.5235C36.5309 38.8282 36.9441 38.9993 37.375 38.9993C37.8059 38.9993 38.2192 38.8282 38.5239 38.5235C38.8285 38.2188 38.9997 37.8055 38.9997 37.3747C38.9997 36.9438 38.8285 36.5305 38.5239 36.2258L21.7978 19.4997L38.5239 2.77353C38.8285 2.4688 38.9997 2.05554 38.9997 1.62465C38.9997 1.19376 38.8285 0.780511 38.5239 0.475778Z" fill="#505050"/>
</g>
<defs>
<clipPath id="clip0_676_2624">
<rect width="39" height="39" fill="white"/>
</clipPath>
</defs>
</svg>
