<svg width="86" height="87" viewBox="0 0 86 87" fill="none" xmlns="http://www.w3.org/2000/svg">
<g clip-path="url(#clip0_1240_1862)">
<path d="M75.8051 11.861L67.6208 3.30962C66.6157 2.2655 65.4146 1.43492 64.0879 0.866597C62.7613 0.298274 61.3358 0.00364831 59.8951 0L42.9997 0C38.871 0.00527265 34.8703 1.45033 31.6719 4.0916C28.4735 6.73288 26.2731 10.4089 25.4414 14.5H25.0831C20.333 14.5058 15.7791 16.4172 12.4203 19.815C9.06154 23.2129 7.17207 27.8197 7.16638 32.625V68.875C7.17207 73.6803 9.06154 78.2871 12.4203 81.685C15.7791 85.0828 20.333 86.9942 25.0831 87H46.5831C51.3331 86.9942 55.887 85.0828 59.2458 81.685C62.6046 78.2871 64.494 73.6803 64.4997 68.875V68.5125C68.5438 67.6711 72.1776 65.4451 74.7885 62.2095C77.3994 58.974 78.8278 54.9267 78.8331 50.75V19.43C78.8384 16.604 77.7518 13.8878 75.8051 11.861V11.861ZM46.5831 79.75H25.0831C22.232 79.75 19.4977 78.6042 17.4817 76.5648C15.4656 74.5253 14.333 71.7592 14.333 68.875V32.625C14.333 29.7408 15.4656 26.9747 17.4817 24.9352C19.4977 22.8958 22.232 21.75 25.0831 21.75V50.75C25.0887 55.5553 26.9782 60.1621 30.337 63.56C33.6958 66.9578 38.2497 68.8692 42.9997 68.875H57.3331C57.3331 71.7592 56.2005 74.5253 54.1845 76.5648C52.1684 78.6042 49.4341 79.75 46.5831 79.75ZM60.9164 61.625H42.9997C40.1486 61.625 37.4143 60.4792 35.3983 58.4398C33.3823 56.4003 32.2497 53.6342 32.2497 50.75V18.125C32.2497 15.2408 33.3823 12.4747 35.3983 10.4352C37.4143 8.39576 40.1486 7.25 42.9997 7.25H57.3331V14.5C57.3331 16.4228 58.0881 18.2669 59.4321 19.6265C60.7761 20.9862 62.599 21.75 64.4997 21.75H71.6664V50.75C71.6664 53.6342 70.5338 56.4003 68.5178 58.4398C66.5018 60.4792 63.7675 61.625 60.9164 61.625V61.625Z" fill="currentColor"/>
</g>
<defs>
<clipPath id="clip0_1240_1862">
<rect width="86" height="87" fill="white"/>
</clipPath>
</defs>
</svg>
