<svg width="88" height="87" viewBox="0 0 88 87" fill="none" xmlns="http://www.w3.org/2000/svg">
<g clip-path="url(#clip0_1072_2072)">
<path d="M68.4061 3.37176L23.7021 47.5678C21.9947 49.2467 20.6411 51.2437 19.7197 53.4433C18.7983 55.6429 18.3273 58.0014 18.3341 60.3821V65.2505C18.3341 66.2119 18.7204 67.1339 19.4081 67.8138C20.0957 68.4936 21.0283 68.8755 22.0008 68.8755H26.9251C29.3332 68.8822 31.7188 68.4166 33.9437 67.5057C36.1686 66.5947 38.1886 65.2565 39.8868 63.5685L84.5908 19.3725C86.7336 17.2489 87.9369 14.3717 87.9369 11.3721C87.9369 8.37253 86.7336 5.49539 84.5908 3.37176C82.4116 1.31237 79.5131 0.163086 76.4985 0.163086C73.4838 0.163086 70.5853 1.31237 68.4061 3.37176V3.37176ZM79.4061 14.2468L34.7021 58.4428C32.6346 60.4743 29.8401 61.6179 26.9251 61.6255H25.6675V60.3821C25.6751 57.5002 26.8319 54.7375 28.8868 52.6935L73.5908 8.49751C74.3739 7.75784 75.4154 7.34509 76.4985 7.34509C77.5816 7.34509 78.623 7.75784 79.4061 8.49751C80.1759 9.26062 80.6082 10.2944 80.6082 11.3721C80.6082 12.4499 80.1759 13.4836 79.4061 14.2468V14.2468Z" fill="currentColor"/>
<path d="M84.3333 32.5489C83.3609 32.5489 82.4282 32.9308 81.7406 33.6106C81.053 34.2904 80.6667 35.2125 80.6667 36.1739V54.375H66C63.0826 54.375 60.2847 55.5208 58.2218 57.5602C56.1589 59.5997 55 62.3658 55 65.25V79.75H18.3333C15.416 79.75 12.6181 78.6043 10.5552 76.5648C8.49226 74.5253 7.33333 71.7592 7.33333 68.875V18.125C7.33333 15.2408 8.49226 12.4747 10.5552 10.4352C12.6181 8.39576 15.416 7.25 18.3333 7.25H51.4873C52.4598 7.25 53.3924 6.86808 54.0801 6.18826C54.7677 5.50844 55.154 4.58641 55.154 3.625C55.154 2.66359 54.7677 1.74156 54.0801 1.06174C53.3924 0.381919 52.4598 0 51.4873 0L18.3333 0C13.4728 0.00575598 8.81305 1.9172 5.37614 5.31505C1.93923 8.7129 0.00582215 13.3197 0 18.125L0 68.875C0.00582215 73.6803 1.93923 78.2871 5.37614 81.685C8.81305 85.0828 13.4728 86.9942 18.3333 87H59.9243C62.333 87.0068 64.7192 86.5413 66.9446 85.6303C69.1701 84.7194 71.1908 83.3811 72.8897 81.693L82.6283 72.0578C84.3361 70.3789 85.6901 68.3819 86.6122 66.1824C87.5342 63.9828 88.0059 61.6243 88 59.2434V36.1739C88 35.2125 87.6137 34.2904 86.9261 33.6106C86.2384 32.9308 85.3058 32.5489 84.3333 32.5489ZM67.705 76.5673C66.2311 78.0209 64.3671 79.0272 62.3333 79.4673V65.25C62.3333 64.2886 62.7196 63.3666 63.4073 62.6867C64.0949 62.0069 65.0275 61.625 66 61.625H80.3917C79.9381 63.6315 78.9214 65.4709 77.4583 66.932L67.705 76.5673Z" fill="currentColor"/>
</g>
<defs>
<clipPath id="clip0_1072_2072">
<rect width="88" height="87" fill="white"/>
</clipPath>
</defs>
</svg>
