<svg width="50" height="50" viewBox="0 0 50 50" fill="none" xmlns="http://www.w3.org/2000/svg">
<g clip-path="url(#clip0_736_2993)">
<path d="M43.7498 8.33333H37.2915C36.808 5.98211 35.5286 3.86947 33.6691 2.3515C31.8096 0.833521 29.4836 0.00303026 27.0832 0L22.9165 0C20.5161 0.00303026 18.1901 0.833521 16.3306 2.3515C14.471 3.86947 13.1917 5.98211 12.7082 8.33333H6.24984C5.6973 8.33333 5.1674 8.55283 4.7767 8.94353C4.386 9.33423 4.1665 9.86413 4.1665 10.4167C4.1665 10.9692 4.386 11.4991 4.7767 11.8898C5.1674 12.2805 5.6973 12.5 6.24984 12.5H8.33317V39.5833C8.33648 42.345 9.43501 44.9926 11.3878 46.9454C13.3406 48.8982 15.9882 49.9967 18.7498 50H31.2498C34.0115 49.9967 36.6591 48.8982 38.6119 46.9454C40.5647 44.9926 41.6632 42.345 41.6665 39.5833V12.5H43.7498C44.3024 12.5 44.8323 12.2805 45.223 11.8898C45.6137 11.4991 45.8332 10.9692 45.8332 10.4167C45.8332 9.86413 45.6137 9.33423 45.223 8.94353C44.8323 8.55283 44.3024 8.33333 43.7498 8.33333ZM22.9165 4.16667H27.0832C28.3754 4.16824 29.6355 4.56953 30.6907 5.31551C31.7459 6.06148 32.5445 7.11561 32.9769 8.33333H17.0228C17.4552 7.11561 18.2538 6.06148 19.309 5.31551C20.3642 4.56953 21.6243 4.16824 22.9165 4.16667ZM37.4998 39.5833C37.4998 41.2409 36.8414 42.8306 35.6693 44.0028C34.4972 45.1749 32.9074 45.8333 31.2498 45.8333H18.7498C17.0922 45.8333 15.5025 45.1749 14.3304 44.0028C13.1583 42.8306 12.4998 41.2409 12.4998 39.5833V12.5H37.4998V39.5833Z" fill="currentColor"/>
<path d="M20.8333 37.4987C21.3859 37.4987 21.9158 37.2792 22.3065 36.8885C22.6972 36.4978 22.9167 35.9679 22.9167 35.4153V22.9154C22.9167 22.3628 22.6972 21.8329 22.3065 21.4422C21.9158 21.0515 21.3859 20.832 20.8333 20.832C20.2808 20.832 19.7509 21.0515 19.3602 21.4422C18.9695 21.8329 18.75 22.3628 18.75 22.9154V35.4153C18.75 35.9679 18.9695 36.4978 19.3602 36.8885C19.7509 37.2792 20.2808 37.4987 20.8333 37.4987Z" fill="currentColor"/>
<path d="M29.1664 37.4987C29.7189 37.4987 30.2488 37.2792 30.6395 36.8885C31.0302 36.4978 31.2497 35.9679 31.2497 35.4153V22.9154C31.2497 22.3628 31.0302 21.8329 30.6395 21.4422C30.2488 21.0515 29.7189 20.832 29.1664 20.832C28.6138 20.832 28.0839 21.0515 27.6932 21.4422C27.3025 21.8329 27.083 22.3628 27.083 22.9154V35.4153C27.083 35.9679 27.3025 36.4978 27.6932 36.8885C28.0839 37.2792 28.6138 37.4987 29.1664 37.4987Z" fill="currentColor"/>
</g>
<defs>
<clipPath id="clip0_736_2993">
<rect width="50" height="50" fill="white"/>
</clipPath>
</defs>
</svg>
