<svg width="50" height="51" viewBox="0 0 50 51" fill="none" xmlns="http://www.w3.org/2000/svg">
<g clip-path="url(#clip0_736_3001)">
<path d="M47.6107 2.41999C46.1944 0.989183 44.2747 0.185547 42.2732 0.185547C40.2717 0.185547 38.352 0.989183 36.9357 2.41999L3.05236 36.702C2.08205 37.6782 1.3127 38.8393 0.788813 40.1183C0.26493 41.3973 -0.00308498 42.7687 0.000275352 44.1532V48.4806C0.000275352 49.0396 0.219769 49.5758 0.61047 49.9711C1.00117 50.3664 1.53107 50.5884 2.08361 50.5884H6.36069C7.72895 50.5923 9.08438 50.3216 10.3485 49.7919C11.6127 49.2622 12.7604 48.4841 13.7253 47.5025L47.6107 13.2185C49.0242 11.7856 49.8181 9.84375 49.8181 7.81923C49.8181 5.79472 49.0242 3.85292 47.6107 2.41999ZM10.7794 44.5221C9.60445 45.703 8.01687 46.3679 6.36069 46.3727H4.16694V44.1532C4.16483 43.3225 4.3256 42.4996 4.63994 41.7322C4.95427 40.9648 5.41593 40.2681 5.99819 39.6824L31.7128 13.6653L36.5044 18.5134L10.7794 44.5221ZM44.6628 10.238L39.4419 15.5223L34.6503 10.6848L39.8732 5.40048C40.1878 5.08285 40.5612 4.83102 40.972 4.65939C41.3828 4.48775 41.823 4.39966 42.2675 4.40015C42.712 4.40064 43.152 4.4897 43.5624 4.66224C43.9729 4.83478 44.3457 5.08743 44.6597 5.40575C44.9736 5.72408 45.2225 6.10185 45.3921 6.5175C45.5618 6.93315 45.6488 7.37854 45.6484 7.82823C45.6479 8.27792 45.5599 8.72312 45.3893 9.13839C45.2188 9.55367 44.9691 9.93089 44.6544 10.2485L44.6628 10.238Z" fill="currentColor"/>
</g>
<defs>
<clipPath id="clip0_736_3001">
<rect width="50" height="50.5882" fill="white"/>
</clipPath>
</defs>
</svg>
