<svg width="50" height="50" viewBox="0 0 50 50" fill="none" xmlns="http://www.w3.org/2000/svg">
<g clip-path="url(#clip0_608_1349)">
<path d="M48.1644 1.83821C47.4175 1.08223 46.4882 0.531659 45.4663 0.239703C44.4445 -0.0522528 43.3646 -0.0757286 42.3311 0.171544L8.99771 7.19238C7.07808 7.45564 5.27008 8.24962 3.7773 9.4849C2.28453 10.7202 1.16628 12.3477 0.548495 14.1842C-0.0692925 16.0207 -0.162083 17.9931 0.280573 19.8795C0.723229 21.7659 1.68375 23.4912 3.05396 24.8611L6.63313 28.4382C6.82685 28.6319 6.98047 28.8618 7.08522 29.1149C7.18996 29.368 7.24376 29.6393 7.24355 29.9132V36.5132C7.24815 37.4412 7.46177 38.3562 7.86855 39.1903L7.85188 39.2049L7.90605 39.259C8.51649 40.4864 9.51351 41.479 10.7435 42.084L10.7977 42.1382L10.8123 42.1215C11.6464 42.5283 12.5614 42.7419 13.4894 42.7465H20.0894C20.6416 42.7461 21.1714 42.9649 21.5623 43.3549L25.1394 46.932C26.0988 47.902 27.2407 48.6726 28.4993 49.1993C29.7579 49.726 31.1084 49.9983 32.4727 50.0007C33.6097 49.9993 34.7389 49.8136 35.8165 49.4507C37.6361 48.8532 39.2526 47.7591 40.4836 46.2918C41.7146 44.8245 42.511 43.0424 42.7831 41.1465L49.8144 7.74029C50.0745 6.69788 50.0592 5.60575 49.7699 4.57105C49.4806 3.53635 48.9274 2.59461 48.1644 1.83821ZM9.58313 25.4965L6.00188 21.9195C5.16796 21.1056 4.58349 20.0708 4.31706 18.9365C4.05063 17.8021 4.1133 16.6153 4.49771 15.5153C4.87041 14.3868 5.55939 13.3891 6.48271 12.6408C7.40602 11.8926 8.52483 11.4253 9.70605 11.2945L42.7081 4.34654L11.406 35.6528V29.9132C11.4092 29.0931 11.2497 28.2805 10.9368 27.5224C10.6239 26.7642 10.1638 26.0757 9.58313 25.4965ZM38.6894 40.434C38.5294 41.5847 38.0519 42.6681 37.3104 43.5625C36.569 44.4568 35.5929 45.1268 34.4917 45.4973C33.3906 45.8677 32.208 45.9239 31.0767 45.6595C29.9455 45.3952 28.9102 44.8208 28.0873 44.0007L24.504 40.4174C23.9256 39.8358 23.2376 39.3747 22.4798 39.0607C21.7221 38.7467 20.9096 38.5861 20.0894 38.5882H14.3498L45.6561 7.29238L38.6894 40.434Z" fill="white"/>
</g>
<defs>
<clipPath id="clip0_608_1349">
<rect width="50" height="50" fill="white"/>
</clipPath>
</defs>
</svg>
