<svg width="36" height="36" viewBox="0 0 36 36" fill="currentColor" xmlns="http://www.w3.org/2000/svg">
<path d="M32.5482 6.64651L12.3955 27.3735C12.26 27.5134 12.0989 27.6244 11.9216 27.7002C11.7443 27.776 11.5542 27.8149 11.3622 27.8149C11.1702 27.8149 10.9801 27.776 10.8028 27.7002C10.6255 27.6244 10.4645 27.5134 10.329 27.3735L2.53567 19.35C2.40018 19.2101 2.23916 19.0991 2.06185 19.0233C1.88454 18.9476 1.69444 18.9086 1.50244 18.9086C1.31045 18.9086 1.12034 18.9476 0.943032 19.0233C0.765724 19.0991 0.604704 19.2101 0.469211 19.35C0.333182 19.4894 0.225247 19.655 0.151599 19.8374C0.0779508 20.0197 0.0400391 20.2153 0.0400391 20.4128C0.0400391 20.6102 0.0779508 20.8058 0.151599 20.9882C0.225247 21.1705 0.333182 21.3361 0.469211 21.4755L8.26546 29.493C9.08788 30.3374 10.2024 30.8116 11.3644 30.8116C12.5264 30.8116 13.641 30.3374 14.4634 29.493L34.6146 8.77051C34.7504 8.63118 34.8582 8.46565 34.9317 8.28341C35.0052 8.10118 35.0431 7.90581 35.0431 7.70851C35.0431 7.51121 35.0052 7.31585 34.9317 7.13361C34.8582 6.95138 34.7504 6.78585 34.6146 6.64651C34.4791 6.5066 34.3181 6.39558 34.1408 6.31983C33.9635 6.24407 33.7734 6.20508 33.5814 6.20508C33.3894 6.20508 33.1993 6.24407 33.022 6.31983C32.8447 6.39558 32.6837 6.5066 32.5482 6.64651Z" fill="#currentColor"/>
</svg>
