<svg width="311" height="343" viewBox="0 0 311 343" fill="none" xmlns="http://www.w3.org/2000/svg">
<ellipse cx="79.3064" cy="104.28" rx="47.3319" ry="89.8505" transform="rotate(-23.5653 79.3064 104.28)" fill="#FFF7F7"/>
<ellipse cx="227.096" cy="103.138" rx="47.3319" ry="91.6526" transform="rotate(26.3505 227.096 103.138)" fill="#FFF7F7"/>
<ellipse cx="154" cy="235" rx="122" ry="108" fill="#FFF7F7"/>
<ellipse cx="87.5" cy="267" rx="36.5" ry="36" fill="#FFE5DF"/>
<ellipse cx="223.5" cy="267" rx="36.5" ry="36" fill="#FFE5DF"/>
<ellipse cx="116.798" cy="236.809" rx="11" ry="16" transform="rotate(-110 116.798 236.809)" fill="#5B483D"/>
<ellipse cx="190.356" cy="238.526" rx="11" ry="16" transform="rotate(-60 190.356 238.526)" fill="#5B483D"/>
<ellipse cx="154.627" cy="250.681" rx="8.68072" ry="12.6265" transform="rotate(90 154.627 250.681)" fill="#FFAD9C"/>
<ellipse cx="192" cy="284" rx="15" ry="21" fill="#84B5FF"/>
<path d="M191.409 254.295C191.806 253.687 192.697 253.691 193.089 254.302L202.796 269.461C203.222 270.126 202.744 271 201.953 271H182.347C181.553 271 181.076 270.118 181.51 269.453L191.409 254.295Z" fill="#84B5FF"/>
</svg>
