<svg width="311" height="343" viewBox="0 0 311 343" fill="none" xmlns="http://www.w3.org/2000/svg">
<ellipse cx="79.3064" cy="104.28" rx="47.3319" ry="89.8505" transform="rotate(-23.5653 79.3064 104.28)" fill="#FFF7F7"/>
<ellipse cx="227.096" cy="103.138" rx="47.3319" ry="91.6526" transform="rotate(26.3505 227.096 103.138)" fill="#FFF7F7"/>
<ellipse cx="154" cy="235" rx="122" ry="108" fill="#FFF7F7"/>
<ellipse cx="87.5" cy="267" rx="36.5" ry="36" fill="#FFE5DF"/>
<ellipse cx="223.5" cy="267" rx="36.5" ry="36" fill="#FFE5DF"/>
<ellipse cx="154.627" cy="250.681" rx="8.68072" ry="12.6265" transform="rotate(90 154.627 250.681)" fill="#FFAD9C"/>
<ellipse cx="108.852" cy="234.201" rx="13.2064" ry="19.2093" transform="rotate(-28.9349 108.852 234.201)" fill="#FF7154"/>
<ellipse cx="119.995" cy="234.695" rx="13.2064" ry="19.2093" transform="rotate(35.803 119.995 234.695)" fill="#FF7154"/>
<ellipse cx="187.852" cy="234.201" rx="13.2064" ry="19.2093" transform="rotate(-28.9349 187.852 234.201)" fill="#FF7154"/>
<ellipse cx="198.995" cy="234.695" rx="13.2064" ry="19.2093" transform="rotate(35.803 198.995 234.695)" fill="#FF7154"/>
</svg>
