<svg width="33" height="30" viewBox="0 0 33 30" fill="none" xmlns="http://www.w3.org/2000/svg">
<g clip-path="url(#clip0_517_1746)">
<path d="M16.5 5C18.0188 5 19.25 3.88071 19.25 2.5C19.25 1.11929 18.0188 0 16.5 0C14.9812 0 13.75 1.11929 13.75 2.5C13.75 3.88071 14.9812 5 16.5 5Z" fill="#F9F9F9"/>
<path d="M16.5 17.5005C18.0188 17.5005 19.25 16.3812 19.25 15.0005C19.25 13.6198 18.0188 12.5005 16.5 12.5005C14.9812 12.5005 13.75 13.6198 13.75 15.0005C13.75 16.3812 14.9812 17.5005 16.5 17.5005Z" fill="#F9F9F9"/>
<path d="M16.5 29.9995C18.0188 29.9995 19.25 28.8802 19.25 27.4995C19.25 26.1188 18.0188 24.9995 16.5 24.9995C14.9812 24.9995 13.75 26.1188 13.75 27.4995C13.75 28.8802 14.9812 29.9995 16.5 29.9995Z" fill="#F9F9F9"/>
</g>
<defs>
<clipPath id="clip0_517_1746">
<rect width="33" height="30" fill="white"/>
</clipPath>
</defs>
</svg>
