<svg width="50" height="50" viewBox="0 0 50 50" fill="none" xmlns="http://www.w3.org/2000/svg">
<path d="M35.4167 22.9167H27.0833V14.5833C27.0833 14.0308 26.8638 13.5009 26.4731 13.1102C26.0824 12.7195 25.5525 12.5 25 12.5C24.4475 12.5 23.9176 12.7195 23.5269 13.1102C23.1362 13.5009 22.9167 14.0308 22.9167 14.5833V22.9167H14.5833C14.0308 22.9167 13.5009 23.1362 13.1102 23.5269C12.7195 23.9176 12.5 24.4475 12.5 25C12.5 25.5525 12.7195 26.0824 13.1102 26.4731C13.5009 26.8638 14.0308 27.0833 14.5833 27.0833H22.9167V35.4167C22.9167 35.9692 23.1362 36.4991 23.5269 36.8898C23.9176 37.2805 24.4475 37.5 25 37.5C25.5525 37.5 26.0824 37.2805 26.4731 36.8898C26.8638 36.4991 27.0833 35.9692 27.0833 35.4167V27.0833H35.4167C35.9692 27.0833 36.4991 26.8638 36.8898 26.4731C37.2805 26.0824 37.5 25.5525 37.5 25C37.5 24.4475 37.2805 23.9176 36.8898 23.5269C36.4991 23.1362 35.9692 22.9167 35.4167 22.9167Z" fill="currentColor"/>
</svg>
