<svg width="85" height="85" viewBox="0 0 85 85" fill="none" xmlns="http://www.w3.org/2000/svg">
<g clip-path="url(#clip0_1072_2073)">
<path d="M42.5004 28.3359C39.6985 28.3359 36.9595 29.1668 34.6298 30.7235C32.3001 32.2801 30.4843 34.4926 29.4121 37.0813C28.3398 39.6699 28.0593 42.5183 28.6059 45.2664C29.1525 48.0144 30.5018 50.5387 32.483 52.5199C34.4643 54.5012 36.9885 55.8504 39.7366 56.3971C42.4846 56.9437 45.3331 56.6631 47.9217 55.5909C50.5103 54.5187 52.7229 52.7029 54.2795 50.3732C55.8362 48.0435 56.667 45.3045 56.667 42.5026C56.667 38.7454 55.1745 35.142 52.5177 32.4853C49.8609 29.8285 46.2576 28.3359 42.5004 28.3359V28.3359ZM42.5004 49.5859C41.0994 49.5859 39.7299 49.1705 38.5651 48.3922C37.4002 47.6139 36.4923 46.5076 35.9562 45.2133C35.4201 43.919 35.2798 42.4947 35.5531 41.1207C35.8264 39.7467 36.5011 38.4846 37.4917 37.4939C38.4823 36.5033 39.7444 35.8287 41.1185 35.5554C42.4925 35.2821 43.9167 35.4223 45.211 35.9585C46.5053 36.4946 47.6116 37.4025 48.3899 38.5673C49.1683 39.7322 49.5837 41.1017 49.5837 42.5026C49.5837 44.3812 48.8374 46.1829 47.509 47.5113C46.1806 48.8397 44.379 49.5859 42.5004 49.5859Z" fill="currentColor"/>
<path d="M75.4164 49.2292L73.8439 48.3225C74.5519 44.4707 74.5519 40.5222 73.8439 36.6704L75.4164 35.7637C76.6257 35.0661 77.6857 34.1371 78.5359 33.0298C79.3861 31.9225 80.0099 30.6586 80.3717 29.3102C80.7335 27.9618 80.8261 26.5554 80.6443 25.1712C80.4625 23.787 80.0099 22.4522 79.3123 21.2429C78.6146 20.0337 77.6856 18.9737 76.5783 18.1234C75.471 17.2732 74.2071 16.6494 72.8587 16.2876C71.5103 15.9259 70.1039 15.8332 68.7197 16.015C67.3355 16.1968 66.0007 16.6494 64.7914 17.3471L63.2154 18.2573C60.2387 15.7141 56.818 13.7425 53.1252 12.4419V10.625C53.1252 7.80707 52.0058 5.10456 50.0132 3.11199C48.0206 1.11942 45.3181 0 42.5002 0C39.6823 0 36.9797 1.11942 34.9872 3.11199C32.9946 5.10456 31.8752 7.80707 31.8752 10.625V12.4419C28.1826 13.7472 24.763 15.7236 21.7885 18.2715L20.2054 17.3542C17.7632 15.9452 14.8613 15.5641 12.1381 16.2947C9.41494 17.0253 7.09352 18.8078 5.68456 21.25C4.2756 23.6922 3.8945 26.5941 4.62511 29.3173C5.35572 32.0405 7.13819 34.3619 9.58039 35.7708L11.1529 36.6775C10.4449 40.5293 10.4449 44.4778 11.1529 48.3296L9.58039 49.2363C7.13819 50.6452 5.35572 52.9666 4.62511 55.6898C3.8945 58.413 4.2756 61.3149 5.68456 63.7571C7.09352 66.1993 9.41494 67.9818 12.1381 68.7124C14.8613 69.443 17.7632 69.0619 20.2054 67.6529L21.7814 66.7427C24.7591 69.2863 28.1812 71.2578 31.8752 72.5581V74.375C31.8752 77.1929 32.9946 79.8954 34.9872 81.888C36.9797 83.8806 39.6823 85 42.5002 85C45.3181 85 48.0206 83.8806 50.0132 81.888C52.0058 79.8954 53.1252 77.1929 53.1252 74.375V72.5581C56.8178 71.2528 60.2374 69.2764 63.2118 66.7285L64.795 67.6423C67.2372 69.0513 70.1391 69.4324 72.8622 68.7017C75.5854 67.9711 77.9068 66.1887 79.3158 63.7465C80.7248 61.3043 81.1059 58.4024 80.3752 55.6792C79.6446 52.956 77.8622 50.6346 75.42 49.2256L75.4164 49.2292ZM66.3923 35.8558C67.5916 40.2017 67.5916 44.7912 66.3923 49.1371C66.1828 49.8935 66.2306 50.698 66.528 51.4243C66.8255 52.1506 67.3558 52.7576 68.0356 53.1498L71.8748 55.3669C72.6887 55.8365 73.2827 56.6103 73.5261 57.5179C73.7695 58.4255 73.6424 59.3927 73.1728 60.2066C72.7031 61.0205 71.9294 61.6145 71.0218 61.8579C70.1141 62.1013 69.147 61.9742 68.3331 61.5046L64.4868 59.2804C63.8065 58.8864 63.0143 58.7299 62.2352 58.8357C61.4561 58.9415 60.7344 59.3036 60.1837 59.8648C57.0313 63.083 53.0599 65.3791 48.6981 66.5054C47.9368 66.7012 47.2622 67.1446 46.7806 67.766C46.2991 68.3873 46.0379 69.1512 46.0383 69.9373V74.375C46.0383 75.3143 45.6652 76.2151 45.001 76.8793C44.3368 77.5435 43.4359 77.9167 42.4966 77.9167C41.5573 77.9167 40.6565 77.5435 39.9923 76.8793C39.3281 76.2151 38.955 75.3143 38.955 74.375V69.9408C38.9554 69.1547 38.6942 68.3908 38.2127 67.7695C37.7311 67.1482 37.0565 66.7047 36.2952 66.509C31.9331 65.378 27.9628 63.0769 24.8131 59.8542C24.2625 59.2929 23.5407 58.9309 22.7616 58.8251C21.9825 58.7193 21.1903 58.8757 20.51 59.2698L16.6708 61.4904C16.2679 61.7266 15.8222 61.8808 15.3594 61.9441C14.8966 62.0074 14.4259 61.9785 13.9744 61.8591C13.5228 61.7397 13.0993 61.5322 12.7283 61.2485C12.3573 60.9648 12.046 60.6105 11.8125 60.206C11.5789 59.8015 11.4277 59.3548 11.3675 58.8916C11.3073 58.4284 11.3393 57.9579 11.4617 57.5071C11.5841 57.0564 11.7944 56.6343 12.0806 56.2651C12.3667 55.896 12.7231 55.5871 13.1291 55.3563L16.9683 53.1392C17.6481 52.7469 18.1784 52.14 18.4759 51.4137C18.7733 50.6874 18.8211 49.8829 18.6116 49.1265C17.4123 44.7806 17.4123 40.1911 18.6116 35.8452C18.8173 35.0904 18.7672 34.2888 18.4693 33.5654C18.1714 32.8421 17.6423 32.2377 16.9648 31.8467L13.1256 29.6296C12.3117 29.1599 11.7177 28.3862 11.4743 27.4786C11.2308 26.571 11.3579 25.6038 11.8276 24.7899C12.2972 23.976 13.071 23.382 13.9786 23.1386C14.8862 22.8951 15.8534 23.0222 16.6673 23.4919L20.5135 25.716C21.192 26.111 21.9825 26.2693 22.7608 26.1661C23.5391 26.0629 24.261 25.704 24.8131 25.1458C27.9655 21.9277 31.9369 19.6315 36.2987 18.5052C37.0624 18.3089 37.7388 17.8633 38.2206 17.2391C38.7023 16.6148 38.9621 15.8477 38.9585 15.0592V10.625C38.9585 9.68569 39.3317 8.78485 39.9958 8.12066C40.66 7.45647 41.5609 7.08333 42.5002 7.08333C43.4395 7.08333 44.3403 7.45647 45.0045 8.12066C45.6687 8.78485 46.0418 9.68569 46.0418 10.625V15.0592C46.0415 15.8453 46.3026 16.6092 46.7842 17.2305C47.2657 17.8518 47.9403 18.2953 48.7016 18.491C53.065 19.6214 57.0366 21.9225 60.1873 25.1458C60.7379 25.7071 61.4597 26.0691 62.2388 26.1749C63.0179 26.2807 63.81 26.1243 64.4904 25.7302L68.3296 23.5096C68.7325 23.2734 69.1782 23.1192 69.6409 23.0559C70.1037 22.9926 70.5744 23.0215 71.026 23.1409C71.4775 23.2603 71.901 23.4678 72.2721 23.7515C72.6431 24.0352 72.9543 24.3896 73.1879 24.794C73.4214 25.1985 73.5727 25.6452 73.6329 26.1084C73.6931 26.5716 73.661 27.0421 73.5387 27.4929C73.4163 27.9436 73.206 28.3657 72.9198 28.7349C72.6336 29.104 72.2773 29.4129 71.8712 29.6438L68.0321 31.8608C67.3558 32.2529 66.8282 32.8577 66.5316 33.581C66.235 34.3043 66.186 35.1054 66.3923 35.8594V35.8558Z" fill="currentColor"/>
</g>
<defs>
<clipPath id="clip0_1072_2073">
<rect width="85" height="85" fill="white"/>
</clipPath>
</defs>
</svg>
