<svg width="50" height="50" viewBox="0 0 50 50" fill="none" xmlns="http://www.w3.org/2000/svg">
<g clip-path="url(#clip0_676_3769)">
<path d="M40.2772 30.2019C38.702 30.2032 37.1508 30.5833 35.7574 31.3094C34.364 32.0354 33.1703 33.0857 32.2793 34.3696L18.7189 28.3179C19.682 26.0191 19.6858 23.4371 18.7293 21.1357L32.271 15.0531C33.5915 16.9408 35.5529 18.2982 37.7993 18.879C40.0457 19.4598 42.4283 19.2257 44.515 18.219C46.6016 17.2123 48.2541 15.4997 49.1727 13.3919C50.0913 11.2842 50.2151 8.92079 49.5217 6.73052C48.8283 4.54025 47.3636 2.66815 45.3933 1.45381C43.423 0.239471 41.0776 -0.23668 38.7825 0.111729C36.4874 0.460137 34.3947 1.61003 32.8839 3.35282C31.3732 5.09561 30.5444 7.31587 30.548 9.61086C30.5569 10.1541 30.6126 10.6955 30.7147 11.2293L16.3189 17.6949C14.9362 16.4146 13.2053 15.5613 11.3388 15.24C9.47229 14.9186 7.55143 15.1431 5.81223 15.8859C4.07302 16.6287 2.59122 17.8575 1.54887 19.4212C0.506514 20.9849 -0.0509895 22.8156 -0.0551523 24.6882C-0.0593151 26.5608 0.490044 28.3938 1.52543 29.962C2.56082 31.5303 4.03715 32.7655 5.77303 33.5158C7.50892 34.2662 9.42876 34.499 11.2967 34.1858C13.1646 33.8725 14.8993 33.0268 16.2876 31.7525L30.721 38.1933C30.6207 38.7267 30.5657 39.2674 30.5564 39.8097C30.556 41.7106 31.1259 43.5688 32.1941 45.1495C33.2623 46.7301 34.7808 47.9622 36.5575 48.6898C38.3342 49.4174 40.2894 49.6078 42.1756 49.2371C44.0619 48.8664 45.7945 47.9511 47.1544 46.607C48.5143 45.2629 49.4404 43.5504 49.8155 41.6861C50.1906 39.8218 49.9979 37.8894 49.2617 36.1333C48.5255 34.3773 47.279 32.8764 45.6798 31.8206C44.0805 30.7649 42.2004 30.2015 40.2772 30.2019ZM40.2772 4.11922C41.3762 4.11881 42.4507 4.44054 43.3647 5.04372C44.2787 5.6469 44.9911 6.50444 45.412 7.50787C45.8329 8.5113 45.9432 9.61555 45.729 10.681C45.5149 11.7464 44.9859 12.7251 44.2089 13.4933C43.4319 14.2615 42.4419 14.7848 41.364 14.9968C40.2862 15.2089 39.1689 15.1003 38.1535 14.6847C37.1381 14.2691 36.2702 13.5652 35.6596 12.6621C35.049 11.7589 34.723 10.6971 34.723 9.61086C34.7241 8.15508 35.3096 6.7592 36.3509 5.72961C37.3922 4.70002 38.8043 4.12085 40.2772 4.11922ZM9.72304 30.2019C8.62403 30.2024 7.54958 29.8806 6.63559 29.2774C5.72159 28.6743 5.00911 27.8167 4.58825 26.8133C4.16739 25.8099 4.05706 24.7056 4.27122 23.6402C4.48537 22.5748 5.01439 21.5961 5.79136 20.8279C6.56833 20.0596 7.55836 19.5364 8.63622 19.3243C9.71408 19.1123 10.8314 19.2209 11.8468 19.6365C12.8622 20.0521 13.73 20.756 14.3407 21.6591C14.9513 22.5622 15.2772 23.6241 15.2772 24.7103C15.2756 26.1659 14.6899 27.5615 13.6487 28.5909C12.6075 29.6204 11.1958 30.1998 9.72304 30.2019ZM40.2772 45.3014C39.1783 45.3014 38.104 44.9793 37.1903 44.3759C36.2766 43.7725 35.5644 42.9148 35.1439 41.9113C34.7234 40.9078 34.6133 39.8037 34.8277 38.7384C35.0421 37.6731 35.5713 36.6946 36.3483 35.9266C37.1254 35.1586 38.1154 34.6355 39.1932 34.4236C40.271 34.2117 41.3882 34.3205 42.4035 34.7361C43.4188 35.1518 44.2865 35.8557 44.8971 36.7588C45.5076 37.6618 45.8335 38.7236 45.8335 39.8097C45.8324 41.2659 45.2466 42.6621 44.2049 43.6917C43.1631 44.7214 41.7505 45.3003 40.2772 45.3014Z" fill="currentColor"/>
</g>
<defs>
<clipPath id="clip0_676_3769">
<rect width="50" height="49.4186" fill="white"/>
</clipPath>
</defs>
</svg>
