<svg width="87" height="88" viewBox="0 0 87 88" fill="none" xmlns="http://www.w3.org/2000/svg">
<path d="M67.834 43.9993H50.7494C48.8266 43.9993 46.9825 43.2267 45.6229 41.8514C44.2632 40.4761 43.4994 38.6109 43.4994 36.6659V19.3373C43.5043 17.6505 43.1257 15.9853 42.3928 14.4702C41.6599 12.9551 40.5923 11.6307 39.2726 10.5996C38.0221 9.59791 36.5607 8.90038 35.0013 8.56088C33.4419 8.22138 31.8262 8.24899 30.279 8.6416C21.4908 10.8482 13.7103 16.0228 8.22442 23.3096C2.73849 30.5964 -0.124308 39.5588 0.109452 48.7148C0.343212 57.8708 3.65953 66.6719 9.50997 73.6626C15.3604 80.6532 23.3945 85.4147 32.2836 87.1596C42.2781 89.0946 52.6259 87.0915 61.2077 81.5603C69.7895 76.0292 75.956 67.3887 78.4444 57.4083C78.834 55.8413 78.8624 54.2047 78.5274 52.6248C78.1924 51.045 77.5029 49.5641 76.5123 48.2966C75.4808 46.9636 74.164 45.8844 72.6609 45.1401C71.1578 44.3958 69.5075 44.0058 67.834 43.9993ZM71.4155 55.6153C70.0276 61.2688 67.1799 66.4479 63.1638 70.623C59.1477 74.7981 54.1073 77.8192 48.5582 79.3774C43.009 80.9356 37.1502 80.975 31.5811 79.4914C26.012 78.0079 20.9324 75.0547 16.8618 70.934C12.7913 66.8132 9.87588 61.6728 8.41382 56.0384C6.95176 50.404 6.99552 44.478 8.54061 38.8663C10.0857 33.2547 13.0767 28.1589 17.2076 24.1001C21.3386 20.0413 26.4612 17.1652 32.0516 15.7659C32.5299 15.6451 33.0295 15.6392 33.5104 15.7487C33.9913 15.8582 34.4402 16.0801 34.8211 16.3966C35.271 16.7435 35.6358 17.1905 35.8872 17.703C36.1387 18.2156 36.27 18.7798 36.2711 19.3519V36.6659C36.2711 40.5558 37.7988 44.2863 40.5181 47.0368C43.2374 49.7874 46.9255 51.3326 50.7711 51.3326H67.8521C68.4227 51.335 68.9854 51.4682 69.4977 51.7222C70.0101 51.9762 70.4588 52.3445 70.8101 52.7993C71.1183 53.19 71.3329 53.6474 71.4373 54.1359C71.5417 54.6244 71.533 55.1307 71.4119 55.6153H71.4155Z" fill="currentColor"/>
<path d="M85.7356 27.3019C84.0666 21.096 80.8245 15.4384 76.3301 10.8891C71.8357 6.33981 66.2447 3.05644 60.1105 1.36394C59.4674 1.18908 58.8044 1.10032 58.1385 1.09994C57.1806 1.09074 56.2304 1.27362 55.3428 1.63803C54.4553 2.00244 53.6479 2.54116 52.9674 3.22304C52.2868 3.90492 51.7466 4.71645 51.378 5.61074C51.0093 6.50504 50.8195 7.46436 50.8196 8.43327V25.6666C50.8196 28.584 51.9653 31.3819 54.0048 33.4448C56.0443 35.5077 58.8103 36.6666 61.6946 36.6666H78.801C79.9199 36.6557 81.0212 36.384 82.0195 35.8727C83.0178 35.3613 83.886 34.6241 84.5569 33.7182C85.2277 32.8123 85.683 31.7622 85.8874 30.6494C86.0919 29.5366 86.0399 28.3911 85.7356 27.3019V27.3019ZM76.6803 29.3333H61.6801C60.7187 29.3333 59.7966 28.947 59.1168 28.2593C58.437 27.5717 58.0551 26.6391 58.0551 25.6666L58.0261 8.45894C58.0526 8.43953 58.084 8.4281 58.1167 8.42594H58.211C63.1486 9.78658 67.647 12.4333 71.2574 16.1019C74.8678 19.7705 77.4639 24.3327 78.7865 29.3333H76.6803Z" fill="currentColor"/>
</svg>
