<svg width="800" height="430" viewBox="0 0 800 430" fill="none" xmlns="http://www.w3.org/2000/svg">
<rect x="1" y="1" width="798" height="428" rx="39" stroke="#B7BABF" stroke-width="2"/>
<circle cx="568" cy="41" r="3" fill="#B7BABF"/>
<g clip-path="url(#clip0_1027_976)">
<path d="M54.458 72.0011C54.8448 72.001 55.2156 71.8473 55.4891 71.5738L65.1418 61.9211L66.9618 63.8052C68.3335 65.2548 70.2241 66.1013 72.2191 66.159C72.8841 66.161 73.5446 66.049 74.1718 65.828C75.1409 65.4943 75.9923 64.8865 76.6227 64.0783C77.253 63.2701 77.6352 62.2962 77.7228 61.275C77.8811 59.7961 77.7714 58.3007 77.3991 56.8607L77.087 55.3411C77.0278 55.0981 77.0322 54.844 77.0996 54.6031C77.167 54.3623 77.2953 54.1428 77.472 53.9659L79.7864 51.65C79.8777 51.5584 80.0012 51.5061 80.1305 51.5042C80.1759 51.4958 80.2228 51.5002 80.2658 51.5169C80.3088 51.5337 80.3463 51.5621 80.3741 51.599C81.1066 52.3758 82.092 52.8659 83.1535 52.9814C84.2149 53.0969 85.2827 52.8301 86.1651 52.229C86.6829 51.8599 87.114 51.3823 87.4284 50.8296C87.7428 50.2769 87.9329 49.6622 87.9855 49.0285C88.0381 48.3948 87.9519 47.7573 87.733 47.1603C87.5141 46.5633 87.1676 46.0212 86.7178 45.5717L79.5414 38.3923C78.8045 37.6371 77.8256 37.1648 76.7758 37.0582C75.726 36.9516 74.6721 37.2173 73.7984 37.809C73.2806 38.178 72.8493 38.6555 72.5348 39.2081C72.2203 39.7608 72.03 40.3754 71.9773 41.0091C71.9245 41.6428 72.0106 42.2804 72.2294 42.8775C72.4482 43.4745 72.7945 44.0167 73.2443 44.4663L73.3551 44.5771C73.4386 44.6613 73.4855 44.775 73.4855 44.8936C73.4855 45.0121 73.4386 45.1259 73.3551 45.21L71.0218 47.5434C70.8428 47.722 70.6204 47.851 70.3765 47.9177C70.1326 47.9845 69.8755 47.9866 69.6305 47.924L68.4391 47.6192C66.9735 47.2365 65.4509 47.1213 63.9445 47.2794C62.876 47.3901 61.8615 47.8039 61.0205 48.472C60.1795 49.1402 59.547 50.0349 59.1976 51.0507C58.8163 52.0945 58.7412 53.2255 58.9809 54.3105C59.2207 55.3956 59.7654 56.3897 60.5509 57.1757L63.1147 59.8298L53.427 69.5117C53.2231 69.7156 53.0842 69.9755 53.028 70.2583C52.9718 70.5412 53.0006 70.8343 53.111 71.1008C53.2213 71.3672 53.4082 71.595 53.648 71.7552C53.8877 71.9155 54.1696 72.001 54.458 72.0011ZM61.9466 52.0219C62.1109 51.5251 62.4157 51.0865 62.8242 50.7594C63.2326 50.4322 63.7271 50.2305 64.2478 50.1786C64.5836 50.1436 64.9209 50.1261 65.2584 50.1261C66.0858 50.1261 66.9097 50.2325 67.7099 50.4425L68.9101 50.7488C69.6454 50.9348 70.4164 50.9272 71.1479 50.7265C71.8793 50.5259 72.5463 50.1391 73.0839 49.604L75.4172 47.2707C76.0468 46.6392 76.4004 45.7838 76.4004 44.8921C76.4004 44.0004 76.0468 43.1451 75.4172 42.5136L75.3064 42.4027C75.1554 42.2521 75.0392 42.0702 74.9662 41.8698C74.8931 41.6694 74.8649 41.4554 74.8836 41.2429C74.9022 41.0305 74.9672 40.8247 75.074 40.64C75.1809 40.4554 75.3269 40.2965 75.5018 40.1744C75.8129 39.986 76.1796 39.9107 76.5398 39.9612C76.9 40.0117 77.2319 40.1848 77.4793 40.4515L84.6601 47.6323C84.8111 47.783 84.9272 47.9649 85.0003 48.1653C85.0733 48.3657 85.1015 48.5797 85.0829 48.7921C85.0642 49.0046 84.9992 49.2104 84.8924 49.395C84.7856 49.5797 84.6396 49.7386 84.4647 49.8607C84.1501 50.0516 83.7788 50.127 83.4147 50.0737C83.0506 50.0205 82.7164 49.842 82.4697 49.569C82.1696 49.2596 81.8106 49.0135 81.4139 48.8452C81.0171 48.6769 80.5907 48.5897 80.1597 48.589C79.2505 48.5931 78.3787 48.9509 77.7286 49.5865L75.4157 51.9009C74.8905 52.4264 74.5078 53.0771 74.3037 53.7915C74.0996 54.5059 74.0808 55.2605 74.2491 55.9842L74.5684 57.5271C74.8627 58.6521 74.9521 59.8209 74.8324 60.9775C74.7975 61.4493 74.6248 61.9003 74.3357 62.2747C74.0467 62.6491 73.6539 62.9303 73.2064 63.0834C72.4603 63.2795 71.674 63.2603 70.9385 63.028C70.2029 62.7958 69.5482 62.3599 69.0501 61.7709L62.6334 55.1355C62.2333 54.7364 61.956 54.231 61.8342 53.6792C61.7125 53.1274 61.7515 52.5523 61.9466 52.0219V52.0219Z" fill="#B7BABF"/>
</g>
<g clip-path="url(#clip1_1027_976)">
<path d="M744.2 58.4643L739.238 53.6155C738.997 53.3878 738.674 53.2618 738.339 53.2647C738.003 53.2675 737.683 53.399 737.445 53.6308C737.208 53.8625 737.074 54.176 737.071 54.5038C737.068 54.8315 737.197 55.1473 737.43 55.383L742.391 60.2318C742.539 60.3787 742.668 60.5424 742.775 60.7193C742.756 60.7193 742.741 60.7093 742.721 60.7093L722.66 60.7493C722.321 60.7493 721.996 60.881 721.756 61.1154C721.516 61.3498 721.381 61.6678 721.381 61.9993C721.381 62.3308 721.516 62.6488 721.756 62.8832C721.996 63.1176 722.321 63.2493 722.66 63.2493L742.714 63.2093C742.749 63.2093 742.779 63.1918 742.813 63.1893C742.7 63.4007 742.556 63.5952 742.386 63.7668L737.425 68.6155C737.303 68.7308 737.205 68.8688 737.138 69.0213C737.071 69.1738 737.036 69.3378 737.034 69.5038C737.033 69.6698 737.065 69.8344 737.129 69.988C737.194 70.1416 737.289 70.2812 737.409 70.3985C737.529 70.5159 737.672 70.6087 737.829 70.6716C737.986 70.7344 738.155 70.766 738.324 70.7646C738.494 70.7632 738.662 70.7287 738.818 70.6632C738.974 70.5977 739.115 70.5024 739.233 70.383L744.195 65.5343C745.154 64.5966 745.693 63.3251 745.693 61.9993C745.693 60.6735 745.154 59.4019 744.195 58.4643H744.2Z" fill="#B7BABF"/>
<path d="M723.953 74.5H721.395C720.378 74.5 719.402 74.1049 718.682 73.4017C717.962 72.6984 717.558 71.7446 717.558 70.75V53.25C717.558 52.2554 717.962 51.3016 718.682 50.5983C719.402 49.8951 720.378 49.5 721.395 49.5H723.953C724.293 49.5 724.618 49.3683 724.858 49.1339C725.098 48.8995 725.233 48.5815 725.233 48.25C725.233 47.9185 725.098 47.6005 724.858 47.3661C724.618 47.1317 724.293 47 723.953 47H721.395C719.7 47.002 718.074 47.6611 716.875 48.8328C715.676 50.0044 715.002 51.593 715 53.25V70.75C715.002 72.407 715.676 73.9956 716.875 75.1672C718.074 76.3389 719.7 76.998 721.395 77H723.953C724.293 77 724.618 76.8683 724.858 76.6339C725.098 76.3995 725.233 76.0815 725.233 75.75C725.233 75.4185 725.098 75.1005 724.858 74.8661C724.618 74.6317 724.293 74.5 723.953 74.5Z" fill="#B7BABF"/>
</g>
<defs>
<clipPath id="clip0_1027_976">
<rect width="35" height="35" fill="white" transform="translate(53 37)"/>
</clipPath>
<clipPath id="clip1_1027_976">
<rect width="30.6977" height="30" fill="white" transform="translate(715 47)"/>
</clipPath>
</defs>
</svg>
