<svg width="150" height="150" viewBox="0 0 150 150" fill="none" xmlns="http://www.w3.org/2000/svg">
<path d="M146 75C146 114.212 114.212 146 75 146C35.7878 146 4 114.212 4 75C4 35.7878 35.7878 4 75 4C114.212 4 146 35.7878 146 75Z" fill="#333333" stroke="white" stroke-width="8"/>
<g clip-path="url(#clip0_537_1556)">
<path d="M89.5837 81.0001C89.5837 81.7957 89.2765 82.5588 88.7295 83.1214C88.1825 83.684 87.4406 84.0001 86.6671 84.0001H63.3337C62.5602 84.0001 61.8183 83.684 61.2713 83.1214C60.7244 82.5588 60.4171 81.7957 60.4171 81.0001C60.4171 80.2044 60.7244 79.4414 61.2713 78.8787C61.8183 78.3161 62.5602 78.0001 63.3337 78.0001H86.6671C87.4406 78.0001 88.1825 78.3161 88.7295 78.8787C89.2765 79.4414 89.5837 80.2044 89.5837 81.0001ZM77.9171 90.0001H63.3337C62.5602 90.0001 61.8183 90.3161 61.2713 90.8787C60.7244 91.4414 60.4171 92.2044 60.4171 93.0001C60.4171 93.7957 60.7244 94.5588 61.2713 95.1214C61.8183 95.684 62.5602 96.0001 63.3337 96.0001H77.9171C78.6906 96.0001 79.4325 95.684 79.9795 95.1214C80.5265 94.5588 80.8337 93.7957 80.8337 93.0001C80.8337 92.2044 80.5265 91.4414 79.9795 90.8787C79.4325 90.3161 78.6906 90.0001 77.9171 90.0001ZM104.167 70.4551V96.0001C104.162 99.9769 102.625 103.789 99.8906 106.601C97.1567 109.413 93.4501 110.995 89.5837 111H60.4171C56.5508 110.995 52.8441 109.413 50.1102 106.601C47.3763 103.789 45.8384 99.9769 45.8337 96.0001V54.0001C45.8384 50.0233 47.3763 46.2107 50.1102 43.3987C52.8441 40.5867 56.5508 39.0048 60.4171 39.0001H73.5858C76.268 38.993 78.925 39.5328 81.4031 40.5884C83.8813 41.6441 86.1314 43.1945 88.0233 45.1501L98.185 55.6081C100.087 57.5528 101.596 59.8664 102.622 62.415C103.649 64.9635 104.174 67.6963 104.167 70.4551ZM83.8992 49.3921C82.9812 48.4776 81.9506 47.6908 80.8337 47.0521V60.0001C80.8337 60.7957 81.141 61.5588 81.688 62.1214C82.235 62.684 82.9769 63.0001 83.7504 63.0001H96.3387C95.7174 61.8516 94.9515 60.7925 94.0608 59.8501L83.8992 49.3921ZM98.3337 70.4551C98.3337 69.9601 98.2404 69.4861 98.1967 69.0001H83.7504C81.4298 69.0001 79.2042 68.0519 77.5632 66.364C75.9223 64.6762 75.0004 62.387 75.0004 60.0001V45.1411C74.5279 45.0961 74.0642 45.0001 73.5858 45.0001H60.4171C58.0964 45.0001 55.8708 45.9483 54.2299 47.6361C52.5889 49.3239 51.6671 51.6131 51.6671 54.0001V96.0001C51.6671 98.387 52.5889 100.676 54.2299 102.364C55.8708 104.052 58.0964 105 60.4171 105H89.5837C91.9044 105 94.13 104.052 95.7709 102.364C97.4119 100.676 98.3337 98.387 98.3337 96.0001V70.4551Z" fill="#B7BABF"/>
</g>
<defs>
<clipPath id="clip0_537_1556">
<rect width="70" height="72" fill="white" transform="translate(40 39)"/>
</clipPath>
</defs>
</svg>
