<svg width="70" height="72" viewBox="0 0 70 72" fill="none" xmlns="http://www.w3.org/2000/svg">
<g clip-path="url(#clip0_679_4182)">
<path d="M49.5837 42.0001C49.5837 42.7957 49.2765 43.5588 48.7295 44.1214C48.1825 44.684 47.4406 45.0001 46.6671 45.0001H23.3337C22.5602 45.0001 21.8183 44.684 21.2713 44.1214C20.7244 43.5588 20.4171 42.7957 20.4171 42.0001C20.4171 41.2044 20.7244 40.4414 21.2713 39.8787C21.8183 39.3161 22.5602 39.0001 23.3337 39.0001H46.6671C47.4406 39.0001 48.1825 39.3161 48.7295 39.8787C49.2765 40.4414 49.5837 41.2044 49.5837 42.0001ZM37.9171 51.0001H23.3337C22.5602 51.0001 21.8183 51.3161 21.2713 51.8787C20.7244 52.4414 20.4171 53.2044 20.4171 54.0001C20.4171 54.7957 20.7244 55.5588 21.2713 56.1214C21.8183 56.684 22.5602 57.0001 23.3337 57.0001H37.9171C38.6906 57.0001 39.4325 56.684 39.9795 56.1214C40.5265 55.5588 40.8337 54.7957 40.8337 54.0001C40.8337 53.2044 40.5265 52.4414 39.9795 51.8787C39.4325 51.3161 38.6906 51.0001 37.9171 51.0001ZM64.1671 31.4551V57.0001C64.1624 60.9769 62.6245 64.7894 59.8906 67.6014C57.1567 70.4134 53.4501 71.9953 49.5837 72.0001H20.4171C16.5508 71.9953 12.8441 70.4134 10.1102 67.6014C7.37631 64.7894 5.83837 60.9769 5.83374 57.0001V15.0001C5.83837 11.0233 7.37631 7.21074 10.1102 4.39873C12.8441 1.58671 16.5508 0.00483272 20.4171 6.9146e-05H33.5858C36.268 -0.00703163 38.925 0.532832 41.4031 1.58845C43.8813 2.64406 46.1314 4.19448 48.0233 6.15007L58.185 16.6081C60.0873 18.5528 61.5956 20.8664 62.6225 23.415C63.6493 25.9635 64.1743 28.6963 64.1671 31.4551ZM43.8992 10.3921C42.9812 9.47755 41.9506 8.69084 40.8337 8.05207V21.0001C40.8337 21.7957 41.141 22.5588 41.688 23.1214C42.235 23.684 42.9769 24.0001 43.7504 24.0001H56.3387C55.7174 22.8516 54.9515 21.7925 54.0608 20.8501L43.8992 10.3921ZM58.3337 31.4551C58.3337 30.9601 58.2404 30.4861 58.1967 30.0001H43.7504C41.4298 30.0001 39.2042 29.0519 37.5632 27.364C35.9223 25.6762 35.0004 23.387 35.0004 21.0001V6.14107C34.5279 6.09607 34.0642 6.00007 33.5858 6.00007H20.4171C18.0964 6.00007 15.8708 6.94828 14.2299 8.63611C12.5889 10.3239 11.6671 12.6131 11.6671 15.0001V57.0001C11.6671 59.387 12.5889 61.6762 14.2299 63.364C15.8708 65.0519 18.0964 66.0001 20.4171 66.0001H49.5837C51.9044 66.0001 54.13 65.0519 55.7709 63.364C57.4119 61.6762 58.3337 59.387 58.3337 57.0001V31.4551Z" fill="currentColor"/>
</g>
<defs>
<clipPath id="clip0_679_4182">
<rect width="70" height="72" fill="white"/>
</clipPath>
</defs>
</svg>
