<svg width="40" height="40" viewBox="0 0 40 40" fill="none" xmlns="http://www.w3.org/2000/svg">
<g clip-path="url(#clip0_676_2877)">
<path d="M39.5113 36.3022L29.563 26.5826C32.274 23.3431 33.6069 19.2095 33.286 15.0368C32.9652 10.8641 31.015 6.97155 27.8389 4.16426C24.6629 1.35696 20.504 -0.150272 16.2224 -0.0456803C11.9408 0.0589118 7.86414 1.76733 4.83566 4.72619C1.80718 7.68505 0.0585631 11.668 -0.0484899 15.8511C-0.155543 20.0343 1.38715 24.0976 4.2605 27.2007C7.13386 30.3037 11.118 32.209 15.3889 32.5225C19.6598 32.8361 23.8906 31.5338 27.2063 28.8851L37.1546 38.6047C37.469 38.9013 37.89 39.0654 38.327 39.0617C38.764 39.058 39.182 38.8868 39.491 38.5849C39.8 38.283 39.9753 37.8745 39.9791 37.4476C39.9829 37.0206 39.8149 36.6093 39.5113 36.3022ZM16.6663 29.3117C14.0292 29.3117 11.4514 28.5477 9.2587 27.1163C7.06604 25.6849 5.35708 23.6504 4.34791 21.27C3.33874 18.8897 3.0747 16.2704 3.58917 13.7435C4.10364 11.2165 5.37351 8.89535 7.23821 7.07351C9.10291 5.25168 11.4787 4.01099 14.0651 3.50835C16.6515 3.00571 19.3324 3.26368 21.7688 4.24965C24.2051 5.23562 26.2875 6.9053 27.7526 9.04755C29.2177 11.1898 29.9996 13.7084 29.9996 16.2849C29.9957 19.7386 28.5896 23.0498 26.09 25.4919C23.5904 27.9341 20.2013 29.3078 16.6663 29.3117Z" fill="#B7BABF"/>
</g>
<defs>
<clipPath id="clip0_676_2877">
<rect width="40" height="39.0805" fill="white"/>
</clipPath>
</defs>
</svg>
