<svg width="35" height="35" viewBox="0 0 35 35" fill="none" xmlns="http://www.w3.org/2000/svg">
<g clip-path="url(#clip0_676_3475)">
<path d="M1.45802 35.0011C1.84476 35.001 2.21564 34.8473 2.48906 34.5738L12.1418 24.9211L13.9618 26.8052C15.3335 28.2548 17.2241 29.1013 19.2191 29.159C19.8841 29.161 20.5446 29.049 21.1718 28.8279C22.1409 28.4943 22.9923 27.8865 23.6227 27.0783C24.253 26.2701 24.6352 25.2962 24.7228 24.275C24.8811 22.7961 24.7714 21.3007 24.3991 19.8607L24.087 18.3411C24.0278 18.0981 24.0322 17.844 24.0996 17.6031C24.167 17.3623 24.2953 17.1428 24.472 16.9659L26.7864 14.65C26.8777 14.5584 27.0012 14.5061 27.1305 14.5042C27.1759 14.4958 27.2228 14.5002 27.2658 14.5169C27.3088 14.5337 27.3463 14.5621 27.3741 14.599C28.1066 15.3758 29.092 15.8659 30.1535 15.9814C31.2149 16.0969 32.2827 15.8301 33.1651 15.229C33.6829 14.8599 34.114 14.3823 34.4284 13.8296C34.7427 13.2769 34.9329 12.6622 34.9855 12.0285C35.0381 11.3948 34.9519 10.7573 34.733 10.1603C34.5141 9.56326 34.1676 9.02116 33.7178 8.5717L26.5414 1.39233C25.8045 0.637058 24.8256 0.164826 23.7758 0.0581946C22.726 -0.0484368 21.6721 0.217318 20.7984 0.808994C20.2806 1.178 19.8493 1.65547 19.5348 2.20814C19.2203 2.76081 19.03 3.3754 18.9773 4.00911C18.9245 4.64282 19.0106 5.28041 19.2294 5.87747C19.4482 6.47454 19.7945 7.01673 20.2443 7.46629L20.3551 7.57712C20.4386 7.66126 20.4855 7.77501 20.4855 7.89358C20.4855 8.01214 20.4386 8.1259 20.3551 8.21004L18.0218 10.5434C17.8428 10.722 17.6204 10.851 17.3765 10.9177C17.1326 10.9845 16.8755 10.9866 16.6305 10.924L15.4391 10.6192C13.9735 10.2365 12.4509 10.1213 10.9445 10.2794C9.87605 10.3901 8.86152 10.8039 8.02048 11.472C7.17945 12.1402 6.54697 13.0349 6.19761 14.0507C5.81634 15.0945 5.74117 16.2255 5.98092 17.3105C6.22067 18.3956 6.76538 19.3897 7.55094 20.1757L10.1147 22.8298L0.426981 32.5117C0.223092 32.7156 0.0842495 32.9755 0.0280051 33.2583C-0.0282393 33.5412 0.000640072 33.8343 0.110992 34.1008C0.221344 34.3672 0.408215 34.595 0.647979 34.7552C0.887743 34.9155 1.16964 35.001 1.45802 35.0011ZM8.94656 15.0219C9.1109 14.5251 9.41573 14.0865 9.82416 13.7594C10.2326 13.4322 10.7271 13.2305 11.2478 13.1786C11.5836 13.1436 11.9209 13.1261 12.2584 13.1261C13.0858 13.1261 13.9097 13.2325 14.7099 13.4425L15.9101 13.7488C16.6454 13.9348 17.4164 13.9272 18.1479 13.7265C18.8793 13.5259 19.5463 13.1391 20.0839 12.604L22.4172 10.2707C23.0468 9.63919 23.4004 8.78384 23.4004 7.89212C23.4004 7.0004 23.0468 6.14505 22.4172 5.51358L22.3064 5.40274C22.1554 5.2521 22.0392 5.07017 21.9662 4.86978C21.8931 4.66939 21.8649 4.45541 21.8836 4.24293C21.9022 4.03046 21.9672 3.82466 22.074 3.64004C22.1809 3.45542 22.3269 3.29647 22.5018 3.17441C22.813 2.98603 23.1796 2.91073 23.5398 2.9612C23.9 3.01168 24.2318 3.18484 24.4793 3.45149L31.6601 10.6323C31.8111 10.783 31.9272 10.9649 32.0003 11.1653C32.0733 11.3657 32.1015 11.5797 32.0829 11.7921C32.0642 12.0046 31.9992 12.2104 31.8924 12.395C31.7856 12.5797 31.6396 12.7386 31.4647 12.8607C31.1501 13.0516 30.7788 13.127 30.4147 13.0737C30.0506 13.0205 29.7164 12.842 29.4697 12.569C29.1696 12.2596 28.8106 12.0135 28.4139 11.8452C28.0171 11.6769 27.5907 11.5897 27.1597 11.589C26.2505 11.5931 25.3787 11.9509 24.7286 12.5865L22.4157 14.9009C21.8905 15.4264 21.5078 16.0771 21.3037 16.7915C21.0996 17.5059 21.0808 18.2605 21.2491 18.9842L21.5684 20.5271C21.8627 21.6521 21.9521 22.8209 21.8324 23.9775C21.7975 24.4493 21.6248 24.9003 21.3357 25.2747C21.0467 25.6491 20.6539 25.9303 20.2064 26.0834C19.4603 26.2795 18.674 26.2603 17.9385 26.028C17.2029 25.7958 16.5482 25.3599 16.0501 24.7709L9.63344 18.1355C9.23333 17.7364 8.95597 17.231 8.83424 16.6792C8.7125 16.1274 8.75148 15.5523 8.94656 15.0219Z" fill="currentColor"/>
</g>
<defs>
<clipPath id="clip0_676_3475">
<rect width="35" height="35" fill="white"/>
</clipPath>
</defs>
</svg>
