<svg width="31" height="30" viewBox="0 0 31 30" fill="none" xmlns="http://www.w3.org/2000/svg">
<g clip-path="url(#clip0_688_2234)">
<path d="M29.2 11.4643L24.2384 6.61554C23.9972 6.38784 23.6741 6.26185 23.3387 6.2647C23.0034 6.26754 22.6826 6.39901 22.4454 6.63077C22.2083 6.86253 22.0737 7.17604 22.0708 7.50379C22.0679 7.83153 22.1968 8.14729 22.4298 8.38304L27.3913 13.2318C27.5388 13.3787 27.6676 13.5424 27.7751 13.7193C27.7559 13.7193 27.7405 13.7093 27.7213 13.7093L7.66042 13.7493C7.32119 13.7493 6.99585 13.881 6.75598 14.1154C6.51611 14.3498 6.38135 14.6678 6.38135 14.9993C6.38135 15.3308 6.51611 15.6488 6.75598 15.8832C6.99585 16.1176 7.32119 16.2493 7.66042 16.2493L27.7137 16.2093C27.7495 16.2093 27.7789 16.1918 27.8134 16.1893C27.7 16.4007 27.5561 16.5952 27.3862 16.7668L22.4247 21.6155C22.3026 21.7308 22.2051 21.8688 22.1381 22.0213C22.071 22.1738 22.0358 22.3378 22.0343 22.5038C22.0328 22.6698 22.0652 22.8344 22.1295 22.988C22.1938 23.1416 22.2888 23.2812 22.4089 23.3985C22.529 23.5159 22.6718 23.6087 22.829 23.6716C22.9862 23.7344 23.1546 23.766 23.3244 23.7646C23.4943 23.7632 23.6621 23.7287 23.8181 23.6632C23.9742 23.5977 24.1153 23.5024 24.2333 23.383L29.1948 18.5343C30.154 17.5966 30.6928 16.3251 30.6928 14.9993C30.6928 13.6735 30.154 12.4019 29.1948 11.4643H29.2Z" fill="currentColor"/>
<path d="M8.95349 27.5H6.39535C5.37766 27.5 4.40165 27.1049 3.68203 26.4017C2.96242 25.6984 2.55814 24.7446 2.55814 23.75V6.25C2.55814 5.25544 2.96242 4.30161 3.68203 3.59835C4.40165 2.89509 5.37766 2.5 6.39535 2.5H8.95349C9.29272 2.5 9.61806 2.3683 9.85793 2.13388C10.0978 1.89946 10.2326 1.58152 10.2326 1.25C10.2326 0.918479 10.0978 0.600537 9.85793 0.366117C9.61806 0.131696 9.29272 0 8.95349 0L6.39535 0C4.69982 0.00198482 3.07432 0.661102 1.8754 1.83277C0.676477 3.00445 0.00203098 4.59301 0 6.25L0 23.75C0.00203098 25.407 0.676477 26.9956 1.8754 28.1672C3.07432 29.3389 4.69982 29.998 6.39535 30H8.95349C9.29272 30 9.61806 29.8683 9.85793 29.6339C10.0978 29.3995 10.2326 29.0815 10.2326 28.75C10.2326 28.4185 10.0978 28.1005 9.85793 27.8661C9.61806 27.6317 9.29272 27.5 8.95349 27.5Z" fill="currentColor"/>
</g>
<defs>
<clipPath id="clip0_688_2234">
<rect width="30.6977" height="30" fill="white"/>
</clipPath>
</defs>
</svg>
