<svg width="85" height="87" viewBox="0 0 85 87" fill="none" xmlns="http://www.w3.org/2000/svg">
<g clip-path="url(#clip0_1072_2071)">
<path d="M14.1663 21.75C12.77 21.7538 11.3868 21.4741 10.0968 20.9271C8.8068 20.3802 7.63556 19.5769 6.65085 18.5636L1.18252 13.5829C0.480855 12.9426 0.0564404 12.0432 0.00264095 11.0826C-0.0511586 10.1221 0.270064 9.17894 0.895643 8.46077C1.52122 7.74259 2.39991 7.30819 3.33842 7.25313C4.27692 7.19806 5.19836 7.52684 5.90002 8.16714L11.5136 13.2929C11.8349 13.6623 12.2267 13.9604 12.6649 14.169C13.103 14.3776 13.5782 14.4922 14.0613 14.5058C14.5443 14.5194 15.025 14.4316 15.4737 14.248C15.9223 14.0643 16.3295 13.7886 16.6702 13.4379L29.4344 1.00052C30.1207 0.375095 31.0177 0.0472094 31.9359 0.0861129C32.854 0.125016 33.7215 0.527663 34.355 1.20901C34.9885 1.89035 35.3384 2.79704 35.3309 3.73758C35.3235 4.67811 34.9591 5.57884 34.3148 6.24952L21.6038 18.6253C20.6255 19.6208 19.465 20.4091 18.1889 20.9453C16.9127 21.4815 15.5458 21.7549 14.1663 21.75V21.75ZM84.9996 14.5C84.9996 13.5386 84.6265 12.6166 83.9623 11.9368C83.2981 11.2569 82.3972 10.875 81.4579 10.875H46.0413C45.102 10.875 44.2011 11.2569 43.5369 11.9368C42.8727 12.6166 42.4996 13.5386 42.4996 14.5C42.4996 15.4614 42.8727 16.3835 43.5369 17.0633C44.2011 17.7431 45.102 18.125 46.0413 18.125H81.4579C82.3972 18.125 83.2981 17.7431 83.9623 17.0633C84.6265 16.3835 84.9996 15.4614 84.9996 14.5ZM21.6038 47.6253L34.3148 35.2495C34.6696 34.9262 34.9572 34.5332 35.1605 34.0938C35.3639 33.6545 35.4788 33.1777 35.4984 32.692C35.5181 32.2062 35.4421 31.7214 35.2749 31.2663C35.1077 30.8112 34.8528 30.3952 34.5254 30.043C34.1979 29.6908 33.8046 29.4097 33.3688 29.2162C32.933 29.0228 32.4637 28.9211 31.9887 28.9171C31.5137 28.9132 31.0428 29.007 30.604 29.1932C30.1652 29.3793 29.7674 29.6538 29.4344 30.0005L16.6844 42.4379C16.0102 43.0978 15.1133 43.466 14.1804 43.466C13.2476 43.466 12.3507 43.0978 11.6765 42.4379L6.04523 36.6923C5.37726 36.0319 4.48263 35.6666 3.55401 35.6748C2.6254 35.6831 1.73711 36.0643 1.08045 36.7364C0.423799 37.4085 0.0513256 38.3177 0.0432562 39.2682C0.0351868 40.2187 0.392167 41.1343 1.03731 41.818L6.65085 47.5636C8.63303 49.5929 11.3185 50.7381 14.122 50.7497C16.9255 50.7612 19.6199 49.6382 21.6179 47.6253H21.6038ZM84.9996 43.5C84.9996 42.5386 84.6265 41.6166 83.9623 40.9368C83.2981 40.2569 82.3972 39.875 81.4579 39.875H46.0413C45.102 39.875 44.2011 40.2569 43.5369 40.9368C42.8727 41.6166 42.4996 42.5386 42.4996 43.5C42.4996 44.4614 42.8727 45.3835 43.5369 46.0633C44.2011 46.7431 45.102 47.125 46.0413 47.125H81.4579C82.3972 47.125 83.2981 46.7431 83.9623 46.0633C84.6265 45.3835 84.9996 44.4614 84.9996 43.5ZM21.6038 76.6253L34.3006 64.2495C34.6554 63.9262 34.943 63.5332 35.1464 63.0938C35.3497 62.6545 35.4646 62.1777 35.4843 61.692C35.5039 61.2062 35.4279 60.7214 35.2607 60.2663C35.0936 59.8112 34.8387 59.3952 34.5112 59.043C34.1838 58.6908 33.7904 58.4097 33.3547 58.2162C32.9189 58.0228 32.4495 57.9211 31.9745 57.9171C31.4995 57.9132 31.0286 58.007 30.5898 58.1932C30.151 58.3793 29.7533 58.6538 29.4202 59.0005L16.6702 71.4379C16.3295 71.7887 15.9223 72.0643 15.4737 72.248C15.025 72.4317 14.5443 72.5194 14.0613 72.5058C13.5782 72.4922 13.103 72.3776 12.6649 72.169C12.2267 71.9604 11.8349 71.6623 11.5136 71.2929L5.90002 66.1671C5.19836 65.5268 4.27692 65.1981 3.33842 65.2531C2.39991 65.3082 1.52122 65.7426 0.895643 66.4608C0.270064 67.1789 -0.0511586 68.1221 0.00264095 69.0826C0.0564404 70.0432 0.480855 70.9426 1.18252 71.5829L6.65085 76.5636C8.63303 78.5929 11.3185 79.7381 14.122 79.7497C16.9255 79.7612 19.6199 78.6382 21.6179 76.6253H21.6038ZM84.9996 72.5C84.9996 71.5386 84.6265 70.6166 83.9623 69.9368C83.2981 69.2569 82.3972 68.875 81.4579 68.875H46.0413C45.102 68.875 44.2011 69.2569 43.5369 69.9368C42.8727 70.6166 42.4996 71.5386 42.4996 72.5C42.4996 73.4614 42.8727 74.3835 43.5369 75.0633C44.2011 75.7431 45.102 76.125 46.0413 76.125H81.4579C82.3972 76.125 83.2981 75.7431 83.9623 75.0633C84.6265 74.3835 84.9996 73.4614 84.9996 72.5Z" fill="currentColor"/>
</g>
<defs>
<clipPath id="clip0_1072_2071">
<rect width="85" height="87" fill="white"/>
</clipPath>
</defs>
</svg>
